# xmcd
#
# Track frame offsets:
#	150
#	17064
#	31974
#	49946
#	63686
#	82628
#	99319
#	115689
#	134876
#	158293
#	180765
#	196997
#	222667
#	237675
#	256496
#	270360
#
# Disc length: 3877 seconds
#
# Revision: 0
# Processed by: cddbd v1.4PL0 Copyright (c) Steve Scherf et al.
# Submitted via: EasyCDDAExtractor 4.6.9.1
#
DISCID=d60f2310
DTITLE=Faith Hil - There You'll Be - The Best Of Faith Hill (Bonus Track)
DYEAR=2001
DGENRE=Country
TTITLE0=There You´ll Be 
TTITLE1=The Kiss
TTITLE2=Breathe --Tin Tin Out Radio Mix
TTITLE3=The Way You Love Me - (Love To Infinity Remix)
TTITLE4=Let Me Let Go
TTITLE5=Piece Of My Heart
TTITLE6=If My Heart Had Wings
TTITLE7=There Will Come A Day
TTITLE8=Love Will Always Win
TTITLE9=My Wild Fontier
TTITLE10=You Give Me Love
TTITLE11=Somewhere Down The Road
TTITLE12=Over The Rainbow
TTITLE13=Breathe
TTITLE14=The Way You Love Me (Love to Infinity Remix)
TTITLE15=If I Should Fall Behind
EXTD=
EXTT0=
EXTT1=
EXTT2=
EXTT3=
EXTT4=
EXTT5=
EXTT6=
EXTT7=
EXTT8=
EXTT9=
EXTT10=
EXTT11=
EXTT12=
EXTT13=
EXTT14=
EXTT15=
PLAYORDER=
